<svg width="512" height="512" viewBox="0 0 512 512" fill="none" xmlns="http://www.w3.org/2000/svg">
  <rect width="512" height="512" rx="152" fill="#08111F"/>
  <rect x="20" y="20" width="472" height="472" rx="132" fill="url(#bg)"/>
  <path d="M102 286C125 391 191 438 256 438C321 438 387 391 410 286C309 239 203 239 102 286Z" fill="#FF6677"/>
  <path d="M90 268C202 215 310 215 422 268" stroke="#12291F" stroke-width="26" stroke-linecap="round"/>
  <path d="M110 307C139 392 197 426 256 426C315 426 373 392 402 307" stroke="#64D3A0" stroke-width="40" stroke-linecap="round"/>
  <ellipse cx="182" cy="335" rx="16" ry="26" fill="#12291F"/>
  <ellipse cx="256" cy="364" rx="16" ry="26" fill="#12291F"/>
  <ellipse cx="330" cy="335" rx="16" ry="26" fill="#12291F"/>
  <path d="M241 116C251 87 274 64 307 53" stroke="#64D3A0" stroke-width="24" stroke-linecap="round"/>
  <path d="M284 145C288 129 302 114 319 108" stroke="#64D3A0" stroke-width="18" stroke-linecap="round"/>
  <defs>
    <linearGradient id="bg" x1="256" y1="0" x2="256" y2="512" gradientUnits="userSpaceOnUse">
      <stop stop-color="#123256"/>
      <stop offset="1" stop-color="#08111F"/>
    </linearGradient>
  </defs>
</svg>
